<svg class="svg-icon" style="width: 1.0009765625em; height: 1em;vertical-align: middle;fill: currentColor;overflow: hidden;" viewBox="0 0 1025 1024" version="1.1" xmlns="http://www.w3.org/2000/svg"><path d="M385.690843 601.953608h0.125507a41.835647 41.835647 0 0 1 41.835648 41.835647v250.483966a41.835647 41.835647 0 0 1-41.835648 41.835648h-0.125507a41.835647 41.835647 0 0 1-41.835647-41.835648V643.789255a41.835647 41.835647 0 0 1 41.835647-41.835647z"  /><path d="M132.822245 601.953608h251.599584a41.835647 41.835647 0 1 1 0 83.545788H132.822245a41.835647 41.835647 0 0 1 0-83.545788z"  /><path d="M414.180919 616.038276a41.68225 41.68225 0 0 1-0.96222 59.057989L72.048995 1004.34281a41.835647 41.835647 0 1 1-58.277057-59.964428l341.169704-329.302326a41.989045 41.989045 0 0 1 59.239277 0.96222zM638.224756 86.510541h0.139453a41.835647 41.835647 0 0 1 41.835647 41.835647V378.830155a41.835647 41.835647 0 0 1-41.835647 41.835647h-0.139453a41.835647 41.835647 0 0 1-41.835647-41.835647V128.346188a41.835647 41.835647 0 0 1 41.835647-41.835647z"  /><path d="M639.619278 337.120014h251.641419a41.835647 41.835647 0 0 1 41.835648 41.835648 41.835647 41.835647 0 0 1-41.835648 41.835647H639.619278a41.835647 41.835647 0 0 1-41.835647-41.835647 41.835647 41.835647 0 0 1 41.835647-41.835648z"  /><path d="M609.860187 406.581134a41.668305 41.668305 0 0 1 0.96222-59.057989l341.239431-329.2326a41.835647 41.835647 0 1 1 58.291002 59.964428l-341.239431 329.288381a42.00299 42.00299 0 0 1-59.253222-0.96222zM129.740352 343.813718h250.497912a41.835647 41.835647 0 0 1 41.835647 41.835647v0.139452a41.835647 41.835647 0 0 1-41.835647 41.835648H129.740352a41.835647 41.835647 0 0 1-41.835647-41.835648v-0.139452a41.835647 41.835647 0 0 1 41.835647-41.835647z"  /><path d="M380.238264 91.0009a41.835647 41.835647 0 0 1 41.835647 41.835648V384.408241a41.835647 41.835647 0 0 1-41.835647 41.835647 41.835647 41.835647 0 0 1-41.835647-41.835647V132.766822a41.835647 41.835647 0 0 1 41.835647-41.765922z"  /><path d="M407.989243 414.139441a41.68225 41.68225 0 0 1-59.057989-0.96222L19.684709 71.951735a41.835647 41.835647 0 1 1 59.964428-58.291002l329.302326 341.239431a41.989045 41.989045 0 0 1-0.96222 59.239277zM645.197364 596.375521h250.483967a41.835647 41.835647 0 0 1 41.835647 41.835648v0.139452a41.835647 41.835647 0 0 1-41.835647 41.835647H645.197364a41.835647 41.835647 0 0 1-41.835647-41.835647v-0.139452a41.835647 41.835647 0 0 1 41.835647-41.835648z"  /><path d="M645.197364 597.770043a41.835647 41.835647 0 0 1 41.835648 41.835647v251.64142a41.835647 41.835647 0 0 1-41.835648 41.835647 41.835647 41.835647 0 0 1-41.835647-41.835647V639.522019a41.835647 41.835647 0 0 1 41.835647-41.751976z"  /><path d="M617.446385 609.832655a41.668305 41.668305 0 0 1 59.057989 0.962219l329.246545 341.253377a41.835647 41.835647 0 1 1-59.964428 58.291002L616.484165 669.085877a42.00299 42.00299 0 0 1 0.96222-59.253222z"  /></svg>